# xmcd
#
# Track frame offsets: 
#        150
#        20116
#        33365
#        68813
#        87912
#        106630
#        135787
#        166602
#        186657
#        208683
#        228644
#        246079
#
# Disc length: 3640 seconds
#
# Revision: 2
# Processed by: cddbd v1.5.2PL0 Copyright (c) Steve Scherf et al.
# Submitted via: ExactAudioCopy v0.99pb5
#
DISCID=990e360c
DTITLE=Gary Moore - Parisienne Walkways: The Blues Collection
DYEAR=2003
DGENRE=Blues
TTITLE0=Oh Pretty Woman
TTITLE1=Walking By Myself
TTITLE2=Need Your Love So Bad
TTITLE3=Merry Go Round
TTITLE4=Showbiz Blues
TTITLE5=Love That Burns
TTITLE6=Parisienne Walkways (Live)
TTITLE7=That Kind Of Woman
TTITLE8=The Sky Is Crying
TTITLE9=Cold Day In Hell
TTITLE10=Only Fool In Town
TTITLE11=King Of The Blues
EXTD=ID3G:   0 YEAR: 2000
EXTT0=
EXTT1=
EXTT2=
EXTT3=
EXTT4=
EXTT5=
EXTT6=
EXTT7=
EXTT8=
EXTT9=
EXTT10=
EXTT11=
PLAYORDER=
